<svg width="1366" height="836" viewBox="0 0 1366 836" fill="none" xmlns="http://www.w3.org/2000/svg">
<path d="M-222.007 522.799C-228.008 467.17 -206.735 411.217 -163.034 357.649C-119.332 304.08 -53.2237 252.928 30.3636 206.932C197.536 114.94 434.534 43.6173 701.729 14.7925C968.925 -14.0323 1215.68 5.10333 1398.63 59.3246C1490.1 86.4355 1565.6 122.311 1619.72 165.327C1673.84 208.342 1706.56 258.471 1712.56 314.1C1718.56 369.729 1697.29 425.682 1653.59 479.25C1609.88 532.819 1543.77 583.971 1460.19 629.967C1293.01 721.959 1056.02 793.281 788.822 822.106C521.626 850.931 274.87 831.795 91.924 777.574C0.449903 750.463 -75.0467 714.588 -129.169 671.571C-183.289 628.557 -216.005 578.428 -222.007 522.799Z" stroke="#A4D0EA"/>
</svg>
