<svg width="1366" height="869" viewBox="0 0 1366 869" fill="none" xmlns="http://www.w3.org/2000/svg">
<path d="M1538.27 351.958C1543.07 410.602 1519.37 468.829 1472.3 523.926C1425.22 579.025 1354.81 630.962 1266.27 676.998C1089.19 769.067 839.717 837.484 559.818 860.399C279.919 883.315 22.6377 856.387 -167.055 794.345C-261.903 763.324 -339.829 723.531 -395.237 676.823C-450.642 630.116 -483.503 576.519 -488.304 517.876C-493.105 459.232 -469.4 401.005 -422.329 345.908C-375.256 290.809 -304.84 238.872 -216.301 192.837C-39.2256 100.767 210.249 32.3507 490.149 9.43505C770.048 -13.4806 1027.33 13.4471 1217.02 75.4892C1311.87 106.511 1389.8 146.303 1445.2 193.012C1500.61 239.719 1533.47 293.315 1538.27 351.958Z" stroke="#A4D0EA"/>
</svg>
