<svg width="267" height="301" viewBox="0 0 267 301" fill="none" xmlns="http://www.w3.org/2000/svg">
<path d="M230.814 164.752V142.098C230.814 142.098 263.801 96.0575 227.837 55.9391C194.99 19.2863 143.446 3.49685 134.788 1.04177C134.757 1.03215 134.737 1.03215 134.717 1.02252C134.345 0.916612 134.063 0.83959 133.872 0.791452C133.852 0.781824 133.842 0.781824 133.822 0.781824C133.711 0.752941 133.64 0.733686 133.601 0.724058C133.54 0.695175 133.51 0.685547 133.51 0.685547C133.51 0.685547 133.48 0.695175 133.47 0.695175C132.625 0.916612 74.8664 16.1092 39.173 55.9391C3.21829 96.0575 36.1961 142.098 36.1961 142.098V164.752H25.8371C11.5659 164.752 0 175.824 0 189.485V300.686H267V189.485C267 175.824 255.434 164.752 241.163 164.752H230.814Z" fill="#F1FAFF"/>
<path d="M95.1012 137.06C82.2886 141.208 71.7258 162.541 65.2156 171.283C55.7206 184.057 39.4746 231.648 39.9568 230.163C41.2656 226.049 53.4473 236.779 59.0846 235.339C68.9012 232.837 75.8704 223.101 75.8704 223.101C75.8704 223.101 91.496 189.267 97.5696 174.745C103.632 160.222 95.1012 137.06 95.1012 137.06Z" fill="#389ED9"/>
<path d="M172.784 137.06C185.597 141.208 199.742 162.987 204.231 174.447C208.204 184.583 226.494 219.502 228.56 232.082C230.478 243.772 191.556 221.091 191.556 221.091C191.556 221.091 176.401 189.256 170.327 174.733C164.242 160.222 172.784 137.06 172.784 137.06Z" fill="#389ED9"/>
<path d="M180.614 178.699L168.719 153.983C167.8 160.839 167.731 168.575 170.315 174.745C176.389 189.268 191.543 221.102 191.543 221.102C191.543 221.102 193.381 222.165 196.217 223.719C205.321 224.942 211.82 220.519 211.82 220.519C211.82 220.519 204.184 218.497 201.371 216.509C198.57 214.521 182.106 183.121 180.614 178.699Z" fill="#17618C"/>
<path d="M187.354 272.246C185.137 242.481 179.052 142.179 175.723 138.877C172.405 135.574 162.427 134.466 150.384 134.329L133.931 136.466L117.489 134.317C105.446 134.455 95.4803 135.563 92.1503 138.866C88.8326 142.168 82.7358 242.481 80.5201 272.235C79.9228 280.314 78.0518 300.675 78.0518 300.675H189.81C189.822 300.687 187.962 280.325 187.354 272.246Z" fill="#389ED9"/>
<path d="M184.035 224.244C183.886 224.211 183.725 224.176 183.564 224.141C182.198 223.868 180.683 223.742 180.063 224.29C179.798 224.53 179.546 224.839 179.316 225.204C166.342 222.428 153.185 219.468 150.452 218.337C146.882 216.863 143.667 207.779 142.232 200.889C140.831 194.124 140.613 190.88 139.603 189.714C139.396 188.183 139.281 186.743 139.304 185.326C139.384 179.167 133.942 183.064 133.885 189.702C133.851 193.976 134.149 200.58 134.723 205.379C134.482 207.367 134.195 209.584 133.953 211.87C133.931 211.618 133.896 211.355 133.873 211.104C133.632 208.876 133.357 206.739 133.116 204.843C133.644 200.089 133.919 193.816 133.885 189.702C133.827 183.075 128.385 179.167 128.466 185.326C128.489 186.812 128.362 188.319 128.133 189.931C127.248 191.245 126.984 194.502 125.664 200.889C124.229 207.779 121.014 216.851 117.444 218.337C115.147 219.286 105.423 221.548 94.6533 223.891L91.7599 165.33L87.1331 180.47L88.2004 167.992C85.5597 174.414 68.2462 213.846 67.3392 215.344C66.4321 216.84 56.3057 220.531 56.3057 220.531L74.928 224.29C75.537 223.548 75.8809 223.079 75.8809 223.079C75.8809 223.079 80.3586 213.378 85.4568 202.135C84.9058 209.573 84.3657 217.126 83.861 224.45C83.8494 224.587 83.8378 224.725 83.8262 224.861C83.7574 225.798 83.7002 226.724 83.6314 227.65C83.6083 228.038 83.5735 228.415 83.551 228.804C83.5047 229.489 83.4591 230.163 83.4128 230.849C83.3903 231.26 83.3556 231.672 83.3324 232.083C83.2868 232.746 83.2404 233.397 83.1948 234.048C83.1601 234.54 83.126 235.02 83.0913 235.511C83.0341 236.277 82.9884 237.042 82.9305 237.796C82.6206 242.367 82.3223 246.766 82.0349 250.868C81.4382 259.564 80.9328 266.991 80.5425 272.236C79.9459 280.314 78.0741 300.676 78.0741 300.676H92.2306L95.3535 255.325H109.82L95.3535 248.766L95.6519 243.944L95.5715 242.321L118.557 232.38C118.557 232.38 125.641 235.477 129.315 234.323C129.625 234.22 129.924 234.106 130.199 233.957C130.256 233.923 130.303 233.889 130.36 233.854C130.578 233.728 130.796 233.603 130.991 233.443C131.026 233.408 131.06 233.375 131.095 233.34C131.301 233.169 131.508 232.986 131.692 232.791C131.703 232.78 131.715 232.757 131.726 232.746C132.817 231.534 135.917 232.426 135.986 232.506C136.147 232.7 136.663 233.226 136.755 233.294C136.939 233.454 137.145 233.592 137.352 233.728C137.444 233.786 137.525 233.854 137.627 233.9C137.937 234.071 138.259 234.22 138.603 234.323C142.277 235.477 149.362 232.38 149.362 232.38L176.182 243.978C176.182 244.024 176.182 244.058 176.193 244.093C176.193 244.138 176.205 244.184 176.205 244.218C176.205 244.275 176.216 244.332 176.216 244.378C176.216 244.401 176.216 244.435 176.228 244.446V244.469C176.239 244.515 176.239 244.561 176.25 244.607C176.25 244.63 176.262 244.652 176.262 244.663C176.274 244.721 176.285 244.755 176.297 244.778C176.423 245.018 177.101 245.383 177.915 245.738C179.316 246.355 181.153 246.995 181.59 247.143C181.601 247.143 181.601 247.143 181.612 247.154C181.659 247.166 181.693 247.177 181.693 247.177C181.693 247.177 183.507 248.651 185.849 250.491C185.298 242.584 184.678 233.592 184.035 224.244Z" fill="#17618C"/>
<path d="M151.727 127.017C150.992 124.72 148.707 123.714 148.707 123.714V126.559C145.044 129.405 138.879 129.987 134.287 130.147C128.121 130.353 124.137 128.582 119.177 125.919V123.029C113.391 124.548 115.71 134.055 117.535 136.535C118.844 138.306 124.539 138.9 130.899 138.843V158.04C130.899 158.61 131.37 159.079 131.944 159.079H135.94C136.514 159.079 136.985 158.61 136.985 158.04V138.626C143.013 138.249 148.569 137.449 150.486 136.672C151.692 136.181 152.473 129.313 151.727 127.017Z" fill="#AFCD21"/>
<path d="M133.942 135.644L132.84 131.096H135.4L133.942 135.644Z" fill="#768D09"/>
<path d="M149.786 126.674C149.786 125.462 149.338 124.937 148.707 124.662V126.559C145.045 129.405 138.879 129.987 134.286 130.147C128.121 130.353 124.137 128.582 119.177 125.919V124.228C118.236 124.228 117.328 125.554 118.155 127.347C118.981 129.141 125.733 131.918 133.942 131.918C142.151 131.918 149.786 128.856 149.786 126.674Z" fill="#768D09"/>
<path d="M147.766 170.106C159.213 171.58 169.431 169.009 171.153 169.009C172.875 169.009 172.083 172.78 171.807 173.466C171.532 174.151 157.662 174.288 148.707 174.288C146.744 174.277 147.766 170.106 147.766 170.106Z" fill="#AFCD21"/>
<path d="M148.707 111.499H119.177V132.17H148.707V111.499Z" fill="#FFD18D"/>
<path d="M148.707 117.749L124.711 132.17H119.177V111.499H148.707V117.749Z" fill="#E5A070"/>
<path d="M133.943 45.0203C114.619 45.0203 105.044 58.732 105.044 67.4962V86.1552C105.044 94.1542 107.145 108.631 116.146 114.345C121.588 117.807 126.973 120.012 130.361 121.212C132.68 122.035 135.205 122.035 137.525 121.212C140.923 120.012 146.296 117.807 151.738 114.345C160.728 108.631 162.841 94.1542 162.841 86.1552C162.841 78.1569 162.841 76.249 162.841 67.4962C162.83 58.732 153.265 45.0203 133.943 45.0203Z" fill="#FFD18D"/>
<path d="M107.364 85.4699C107.364 85.4699 112.128 74.6371 112.128 64.6392C112.128 64.6392 122.462 70.4897 132.646 72.4894C132.646 72.4894 129.775 70.3411 128.765 68.056C128.765 68.056 139.672 71.3465 156.033 70.6265C156.033 70.6265 157.491 80.1906 160.993 84.3387C160.993 84.3387 166.343 75.8256 166.343 68.6268C166.343 61.4284 166.504 57.4862 163.783 54.9153C161.051 52.3443 104.895 51.9215 102.622 58.4803C100.349 65.0505 102.599 75.7572 102.622 79.1852C102.657 82.6361 107.364 85.4699 107.364 85.4699Z" fill="#28292B"/>
<path d="M133.988 67.0619H105.434C102.69 67.0619 100.762 67.0619 100.784 62.1371C100.888 28.509 133.988 30.3716 133.988 30.3716H133.943C133.943 30.3716 167.043 28.509 167.146 62.1371C167.158 67.0619 165.24 67.0619 162.497 67.0619H133.943" fill="#D0D0D0"/>
<path d="M108.5 62.1482C108.58 35.6844 129.086 31.2052 137.823 30.4854C135.538 30.3025 134.069 30.3711 133.965 30.3711C133.483 30.3483 100.888 28.76 100.784 62.1367C100.773 67.0612 102.69 67.0612 105.434 67.0612H113.149C110.406 67.0612 108.488 67.0612 108.5 62.1482Z" fill="#B9B9B9"/>
<path d="M106.021 78.648C99.281 75.2545 97.7887 82.6475 96.8358 85.3099C95.8822 87.9723 101.623 99.787 105.251 96.359C108.891 92.9309 107.1 79.1966 106.021 78.648Z" fill="#FFD18D"/>
<path d="M161.854 78.648C168.593 75.2545 170.086 82.6475 171.039 85.3099C171.992 87.9723 166.252 99.787 162.623 96.359C158.984 92.9309 160.786 79.1966 161.854 78.648Z" fill="#FFD18D"/>
<path d="M100.256 81.5503C101.461 80.8759 104.78 79.2306 105.078 83.1271C105.376 87.0237 106.284 92.7942 104.55 93.6165C102.816 94.4395 99.7278 91.0688 99.8082 89.0462C99.8886 87.0237 103.804 87.1833 103.804 87.1833C103.804 87.1833 103.723 83.9501 103.126 82.6013C102.518 81.2532 100.256 81.5503 100.256 81.5503Z" fill="#E5A070"/>
<path d="M167.628 81.5503C166.423 80.8759 163.105 79.2306 162.806 83.1271C162.508 87.0237 161.6 92.7942 163.335 93.6165C165.068 94.4395 168.156 91.0688 168.076 89.0462C167.995 87.0237 164.08 87.1833 164.08 87.1833C164.08 87.1833 164.161 83.9501 164.758 82.6013C165.366 81.2532 167.628 81.5503 167.628 81.5503Z" fill="#E5A070"/>
<path d="M122.943 87.2752C124.275 87.2752 125.355 86.2007 125.355 84.8754C125.355 83.5501 124.275 82.4756 122.943 82.4756C121.612 82.4756 120.532 83.5501 120.532 84.8754C120.532 86.2007 121.612 87.2752 122.943 87.2752Z" fill="#28292B"/>
<path d="M144.941 87.2752C146.273 87.2752 147.353 86.2007 147.353 84.8754C147.353 83.5501 146.273 82.4756 144.941 82.4756C143.61 82.4756 142.53 83.5501 142.53 84.8754C142.53 86.2007 143.61 87.2752 144.941 87.2752Z" fill="#28292B"/>
<path d="M152.715 79.5278C150.441 78.4423 148.363 77.6539 146.228 77.5626C145.171 77.517 144.092 77.5626 143.001 77.8142C142.438 77.8943 141.911 78.0995 141.325 78.237C140.751 78.3967 140.2 78.6371 139.557 78.7739C139.935 78.2709 140.36 77.7913 140.831 77.3567C141.348 76.9912 141.842 76.5455 142.462 76.3057C143.621 75.6776 144.999 75.4489 146.342 75.5173C147.685 75.5974 149.006 76.0203 150.108 76.7286C151.21 77.4369 152.163 78.3739 152.715 79.5278Z" fill="#28292B"/>
<path d="M126.364 105.283C129.005 106.06 131.405 106.609 133.873 106.62C135.09 106.632 136.33 106.574 137.582 106.346C138.225 106.277 138.833 106.095 139.499 105.98C140.154 105.843 140.785 105.649 141.52 105.523C141.095 105.923 140.613 106.3 140.073 106.643C139.487 106.94 138.913 107.283 138.213 107.488C136.893 108.003 135.297 108.208 133.759 108.186C132.208 108.163 130.681 107.866 129.407 107.352C128.121 106.837 127.019 106.151 126.364 105.283Z" fill="#E5A070"/>
<path d="M115.159 79.5278C117.432 78.4423 119.51 77.6539 121.646 77.5626C122.702 77.517 123.782 77.5626 124.872 77.8142C125.435 77.8943 125.962 78.0995 126.548 78.237C127.122 78.3967 127.673 78.6371 128.316 78.7739C127.938 78.2709 127.513 77.7913 127.042 77.3567C126.525 76.9912 126.032 76.5455 125.411 76.3057C124.252 75.6776 122.863 75.4489 121.531 75.5173C120.188 75.5974 118.867 76.0203 117.765 76.7286C116.663 77.4369 115.721 78.3739 115.159 79.5278Z" fill="#28292B"/>
<path d="M136.847 97.6158L134.539 96.4501C134.412 96.3354 133.896 96.3589 133.459 96.4384C133.459 95.5704 133.459 94.0848 133.459 92.8162C133.459 92.8162 132.874 94.1076 132.484 95.5131C132.334 96.0617 132.105 96.4501 131.761 96.7355L131.014 97.6386C130.716 97.9696 130.934 98.4955 131.381 98.5183C133.218 98.5867 134.952 98.0498 136.514 98.5065C136.95 98.644 137.191 97.9357 136.847 97.6158Z" fill="#E5A070"/>
<path d="M124.275 205.413C126.159 192.022 128.535 185.486 128.455 179.327C128.374 173.168 133.817 177.064 133.874 183.703C133.931 190.342 133.185 202.614 131.853 205.002C130.51 207.379 124.275 205.413 124.275 205.413Z" fill="#E5A070"/>
<path d="M117.432 212.338C121.002 210.863 124.217 201.779 125.652 194.889C127.719 184.948 127.191 182.571 130.463 183.314C132.472 183.771 133.345 186.445 132.598 191.827C131.852 197.197 139.166 225.226 129.281 228.334C125.607 229.488 118.522 226.392 118.522 226.392L62.3905 250.673L60.5879 225.021C60.6108 225.021 111.737 214.691 117.432 212.338Z" fill="#FFD18D"/>
<path d="M134.127 220.748C134.138 220.702 134.138 220.656 134.15 220.599C134.207 220.211 134.264 219.822 134.31 219.422C134.322 219.365 134.322 219.319 134.322 219.263C134.356 218.942 134.379 218.611 134.413 218.268C134.425 218.12 134.436 217.971 134.448 217.811C134.46 217.72 134.46 217.617 134.471 217.525V217.548C134.678 213.652 134.333 209.218 133.885 205.105C133.254 206.99 131.601 212.223 131.521 215.697C131.417 219.994 132.301 222.622 130.005 223.753C128.202 224.415 126.159 224.244 124.31 223.924C120.395 223.228 117.869 219.994 117.869 219.994V223.787L91.0026 232.997L89.1084 235.876L89.7051 238.881L118.581 226.392C118.581 226.392 125.665 229.489 129.339 228.335C131.853 227.546 133.254 225.124 133.954 221.879C133.966 221.845 133.966 221.81 133.977 221.776C134 221.445 134.069 221.102 134.127 220.748Z" fill="#E5A070"/>
<path d="M87.8216 218.291C91.5644 221.662 92.0582 237.956 91.6107 238.812C91.232 239.532 87.0758 241.212 87.0758 241.212C87.0758 241.212 78.4643 247.497 74.2965 250.342C70.1288 253.198 64.5721 252.673 59.1874 254.056C53.8027 255.439 47.0287 257.164 42.5165 250.342C38.0044 243.52 36.087 230.037 44.7784 224.152C53.4582 218.279 82.1846 219.056 82.1846 219.056C82.1846 219.056 86.582 217.182 87.8216 218.291Z" fill="#389ED9"/>
<path d="M85.9162 230.952C85.9162 230.952 85.5375 236.185 84.4811 236.642C83.4247 237.099 76.8001 241.944 74.2397 243.144C71.6794 244.344 62.5058 246.046 57.3737 247.874C51.7478 249.874 43.8372 249.222 39.9795 244.961C40.6339 246.983 41.495 248.834 42.5054 250.354C47.0175 257.176 53.7915 255.45 59.1762 254.068C64.5609 252.685 70.1176 253.199 74.2854 250.354C78.4532 247.498 87.0639 241.224 87.0639 241.224C87.0639 241.224 88.0515 240.824 89.108 240.333C89.567 238.15 89.8313 236.322 89.7046 235.476C89.3144 232.654 85.9162 230.952 85.9162 230.952Z" fill="#17618C"/>
<path d="M91.6113 238.824C92.0588 237.956 91.565 221.661 87.8222 218.302C86.5826 217.194 82.1621 219.079 82.1621 219.079C82.1621 219.079 86.6282 227.558 87.0648 241.224C87.0648 241.224 91.2326 239.544 91.6113 238.824Z" fill="#AFCD21"/>
<path d="M91.4732 231.26C91.117 231.637 90.4508 232.289 89.705 232.689C89.4067 231.066 89.062 229.478 88.6254 227.889C88.0628 225.867 87.3858 223.856 86.3866 222.005C87.1099 223.97 87.4662 226.015 87.7304 228.061C87.9368 229.763 88.0519 231.489 88.1091 233.18C87.0983 233.443 86.375 233.683 86.375 233.683C86.7196 235.968 86.9608 238.47 87.0527 241.201C87.0527 241.201 91.2205 239.521 91.5876 238.801C91.8063 238.448 91.8172 235.145 91.4732 231.26Z" fill="#768D09"/>
<path d="M143.472 205.413C141.589 192.022 139.212 185.486 139.292 179.327C139.373 173.168 133.931 177.064 133.873 183.703C133.816 190.33 134.562 202.614 135.894 205.002C137.237 207.379 143.472 205.413 143.472 205.413Z" fill="#E5A070"/>
<path d="M150.44 212.338C146.87 210.863 143.655 201.779 142.22 194.889C140.153 184.948 140.681 182.571 137.409 183.314C135.4 183.771 134.527 186.445 135.274 191.827C136.02 197.197 128.706 225.226 138.591 228.334C142.265 229.488 149.35 226.392 149.35 226.392L205.482 250.673L207.284 225.021C207.273 225.021 156.135 214.691 150.44 212.338Z" fill="#FFD18D"/>
<path d="M149.5 223.798V220.005C149.5 220.005 148.191 224.506 144.276 225.204C140.855 225.81 135.826 224.918 133.633 219.959C134.173 224.164 135.585 227.409 138.581 228.357C142.256 229.511 149.339 226.415 149.339 226.415L177.71 238.687L178.261 235.899L176.366 233.02L149.5 223.798Z" fill="#E5A070"/>
<path d="M180.063 218.291C176.32 221.662 175.827 237.956 176.274 238.813C176.653 239.533 181.682 241.213 181.682 241.213C181.682 241.213 189.431 247.497 193.599 250.342C197.767 253.199 203.324 252.674 208.708 254.056C214.093 255.438 220.867 257.164 225.38 250.342C229.891 243.521 231.809 230.037 223.118 224.153C214.426 218.268 186.137 218.805 186.137 218.805C186.137 218.805 181.291 217.183 180.063 218.291Z" fill="#389ED9"/>
<path d="M225.38 250.353C226.207 249.108 226.93 247.645 227.538 246.046C223.278 249.451 216.046 249.839 210.753 247.965C205.448 246.08 195.976 244.32 193.324 243.075C190.683 241.841 183.829 236.825 182.75 236.356C181.659 235.888 181.269 230.483 181.269 230.483C181.269 230.483 177.767 232.231 177.354 235.145C177.239 235.967 177.468 237.705 177.893 239.773C179.489 240.481 181.671 241.212 181.671 241.212C181.671 241.212 189.421 247.497 193.588 250.342C197.755 253.199 203.313 252.673 208.698 254.056C214.094 255.449 220.867 257.187 225.38 250.353Z" fill="#17618C"/>
<path d="M180.063 218.29C176.32 221.661 175.827 237.955 176.274 238.812C176.653 239.532 181.682 241.211 181.682 241.211C182.199 227.671 186.148 218.816 186.148 218.816C186.148 218.816 181.291 217.182 180.063 218.29Z" fill="#AFCD21"/>
<path d="M179.58 233.111C179.58 233.111 176.767 231.637 176.411 231.26C176.056 235.145 176.079 238.436 176.274 238.812C176.652 239.532 181.682 241.212 181.682 241.212C181.785 238.595 182.014 236.162 182.313 233.922L179.58 233.111Z" fill="#768D09"/>
</svg>
