<svg width="20" height="14" viewBox="0 0 20 14" fill="none" xmlns="http://www.w3.org/2000/svg">
<rect width="20" height="14" rx="2" fill="#0060AF"/>
<path fill-rule="evenodd" clip-rule="evenodd" d="M4.11337 8.34139C4.11337 8.1535 4.11558 7.65128 4.11056 7.5894C4.11493 6.84208 3.52676 6.31491 3.15518 6.35601C2.89806 6.37662 2.68253 6.47348 2.56687 6.75211C2.45959 7.01178 2.55551 7.35718 2.91204 7.43823C3.29324 7.52527 3.5159 7.59769 3.67701 7.69986C3.87442 7.82493 4.03558 8.06391 4.03985 8.34169" fill="white"/>
<path fill-rule="evenodd" clip-rule="evenodd" d="M3.95398 8.34167C3.95523 8.10082 3.80971 7.88785 3.61953 7.7734C3.45083 7.67225 3.22435 7.60582 2.85898 7.52019C2.74603 7.4935 2.62789 7.43421 2.59132 7.35864C2.49457 7.4487 2.477 7.65117 2.49402 7.76953C2.5138 7.90643 2.68701 8.1321 2.94781 8.14094C3.10708 8.14685 3.30844 8.10928 3.40501 8.09032C3.57159 8.05709 3.83515 8.15348 3.87711 8.34137" fill="white"/>
<path fill-rule="evenodd" clip-rule="evenodd" d="M4.24863 5.19141C3.80638 5.19141 3.42445 5.46081 3.42578 5.927C3.42716 6.31902 3.76843 6.52888 3.89025 6.67878C4.07427 6.90467 4.17387 7.17203 4.18417 7.58114C4.19227 7.90673 4.19186 8.22824 4.19365 8.34219H4.29123C4.28957 8.22297 4.28516 7.88166 4.29017 7.57107C4.29679 7.16183 4.39998 6.90467 4.58409 6.67878C4.70697 6.52888 5.04792 6.31902 5.04865 5.927C5.05035 5.46081 4.66856 5.19141 4.22678 5.19141" fill="white"/>
<path fill-rule="evenodd" clip-rule="evenodd" d="M4.36186 8.34139C4.36186 8.1535 4.35956 7.65128 4.36449 7.5894C4.36016 6.84208 4.94797 6.31491 5.31987 6.35601C5.57699 6.37662 5.79225 6.47348 5.90827 6.75211C6.01542 7.01178 5.91899 7.35718 5.56291 7.43823C5.18144 7.52527 4.9591 7.59769 4.79758 7.69986C4.6004 7.82493 4.45052 8.06391 4.44592 8.34169" fill="white"/>
<path fill-rule="evenodd" clip-rule="evenodd" d="M4.51954 8.34167C4.51816 8.10082 4.66363 7.88785 4.85326 7.7734C5.0227 7.67225 5.24941 7.60582 5.61446 7.52019C5.72763 7.4935 5.84563 7.43421 5.88156 7.35864C5.97877 7.4487 5.99634 7.65117 5.97927 7.76953C5.95912 7.90643 5.78633 8.1321 5.52599 8.14094C5.36681 8.14685 5.16434 8.10928 5.06819 8.09032C4.90226 8.05709 4.63796 8.15348 4.59582 8.34137" fill="white"/>
<path fill-rule="evenodd" clip-rule="evenodd" d="M4.65615 9.11917L4.59961 8.73773L4.7362 8.71861C4.76941 8.71444 4.8099 8.7198 4.82609 8.73901C4.84399 8.75911 4.84946 8.77573 4.85291 8.80208C4.85811 8.83472 4.8479 8.87237 4.80815 8.89116V8.89231C4.8525 8.89231 4.87932 8.92176 4.88714 8.97148C4.88824 8.98202 4.89165 9.00735 4.88824 9.02852C4.87923 9.07888 4.84675 9.09512 4.79182 9.10221L4.65615 9.11917ZM4.74406 9.05092C4.76026 9.04875 4.77668 9.04794 4.78952 9.04038C4.80921 9.02852 4.80741 9.00319 4.80465 8.98432C4.79784 8.94297 4.78616 8.9272 4.73864 8.9337L4.70873 8.93795L4.72769 9.053L4.74406 9.05092ZM4.7155 8.87463C4.73358 8.87195 4.75805 8.86991 4.76826 8.85406C4.77365 8.84347 4.78045 8.83506 4.77595 8.81151C4.77038 8.78363 4.7604 8.76629 4.72198 8.77301L4.68624 8.77832L4.70036 8.87607L4.7155 8.87463Z" fill="white"/>
<path fill-rule="evenodd" clip-rule="evenodd" d="M5.24787 8.88991C5.24893 8.89701 5.25017 8.90491 5.25063 8.91201C5.26167 8.98154 5.24787 9.03917 5.16322 9.05502C5.03804 9.07725 5.01407 9.00547 4.99208 8.90491L4.98035 8.85047C4.9631 8.75429 4.95569 8.68145 5.0777 8.65897C5.14647 8.64741 5.19193 8.67269 5.21083 8.73593C5.21378 8.74537 5.21746 8.75468 5.21884 8.7642L5.14399 8.77848C5.13534 8.75468 5.12388 8.71222 5.09021 8.71579C5.02976 8.72255 5.04972 8.79199 5.05593 8.82106L5.07843 8.92548C5.08519 8.95706 5.09863 9.00751 5.15093 8.99778C5.1934 8.98991 5.17486 8.9288 5.17108 8.90372" fill="white"/>
<path fill-rule="evenodd" clip-rule="evenodd" d="M5.36765 9.00536L5.3418 8.61062L5.44232 8.58228L5.65316 8.92559L5.57398 8.94748L5.52402 8.86023L5.43611 8.88462L5.44747 8.98382L5.36765 9.00536ZM5.42875 8.82087L5.49228 8.80387L5.40791 8.64416L5.42875 8.82087Z" fill="white"/>
<path fill-rule="evenodd" clip-rule="evenodd" d="M2.88492 8.70683C2.91639 8.6138 2.94454 8.54524 3.06466 8.57567C3.12893 8.59229 3.16877 8.61843 3.16688 8.68741C3.16656 8.70275 3.16109 8.71843 3.1575 8.73356L3.08274 8.71452C3.09254 8.6764 3.09875 8.64618 3.04796 8.63173C2.98926 8.61686 2.97495 8.68265 2.96686 8.71104L2.93645 8.81448C2.92679 8.84521 2.91519 8.896 2.96686 8.90913C3.00955 8.91971 3.0354 8.88104 3.05086 8.82451L2.9986 8.81168L3.01668 8.75184L3.13965 8.78834L3.08127 8.9878L3.02468 8.9736L3.03743 8.93144H3.03582C3.00973 8.96595 2.97799 8.96956 2.95016 8.96459C2.82719 8.93391 2.84002 8.85966 2.86937 8.76046" fill="white"/>
<path fill-rule="evenodd" clip-rule="evenodd" d="M3.34305 8.87533L3.30602 9.03759L3.22266 9.02098L3.31149 8.64209L3.4536 8.67171C3.53678 8.68833 3.5619 8.7225 3.55012 8.79296C3.5434 8.83338 3.52183 8.8769 3.46915 8.87337L3.4686 8.87274C3.51313 8.8871 3.5169 8.90788 3.50913 8.94371C3.50577 8.95901 3.48263 9.05158 3.49859 9.06654L3.49915 9.07793L3.41289 9.0571C3.4093 9.03147 3.42154 8.98532 3.42637 8.95973C3.4312 8.93712 3.43897 8.90525 3.41413 8.89331C3.39471 8.8837 3.38745 8.88417 3.36546 8.87954L3.34305 8.87533ZM3.35727 8.81664L3.41339 8.83062C3.44748 8.83521 3.46644 8.81889 3.47315 8.78081C3.47923 8.74592 3.47136 8.73232 3.44077 8.72556L3.38059 8.71425L3.35727 8.81664Z" fill="white"/>
<path fill-rule="evenodd" clip-rule="evenodd" d="M3.87599 8.72677L3.95844 8.73561L3.92292 9.002C3.90567 9.08645 3.87034 9.12334 3.76977 9.11182C3.66746 9.09984 3.64316 9.05683 3.64933 8.9717L3.68512 8.70557L3.76821 8.71432L3.73255 8.97451C3.72873 9.00277 3.72169 9.04463 3.77607 9.04973C3.82433 9.05313 3.83528 9.02355 3.84076 8.98683" fill="white"/>
<path fill-rule="evenodd" clip-rule="evenodd" d="M4.05078 9.12625L4.07562 8.74536L4.23397 8.75169C4.30887 8.75514 4.32842 8.81158 4.32612 8.86547C4.32391 8.89823 4.31287 8.93483 4.28196 8.95467C4.25661 8.97155 4.22399 8.97554 4.19381 8.97418L4.14219 8.97155L4.13189 9.13118L4.05078 9.12625ZM4.14449 8.91345L4.18645 8.91562C4.22054 8.91676 4.24313 8.90431 4.24607 8.85807C4.24777 8.8137 4.22956 8.80614 4.18539 8.80435L4.15218 8.80329L4.14449 8.91345Z" fill="white"/>
<path fill-rule="evenodd" clip-rule="evenodd" d="M15.2209 5.55936L14.5913 6.61498C14.3537 6.43669 14.0636 6.30553 13.6934 6.30553C12.8173 6.30553 12.4614 6.90878 12.4614 7.33374C12.4614 7.64921 12.685 8.11459 13.4645 8.11459C13.7918 8.11459 14.2569 7.90434 14.3908 7.80863L13.7682 9.03331C13.4714 9.08801 13.3739 9.12192 13.1227 9.12911C11.7274 9.16757 11.1637 8.37575 11.1641 7.56672C11.165 6.49712 12.1943 5.19637 13.9008 5.19637C14.0053 5.19637 14.1332 5.22982 14.2426 5.26683L14.3531 5.13623" fill="white"/>
<path fill-rule="evenodd" clip-rule="evenodd" d="M17.8197 5.16943L17.998 9.00595H16.6713L16.6705 8.34801H15.7658L15.4681 9.00595H14.0293L15.5336 6.26636L15.1944 6.26432L15.8388 5.16943H17.8197ZM16.6619 6.34311L16.1504 7.45904H16.6773L16.6619 6.34311Z" fill="white"/>
<path fill-rule="evenodd" clip-rule="evenodd" d="M10.327 5.16948C10.984 5.17288 11.3552 5.50234 11.3552 5.97821C11.3552 6.41698 10.9637 6.80531 10.5339 7.00612C10.9764 7.15644 11.0147 7.52534 11.0147 7.78629C11.0147 8.41686 10.3298 9.006 9.43959 9.006H7.49805L8.25538 6.30457L7.94429 6.30291L8.58022 5.16948C8.58022 5.16948 9.79272 5.16608 10.327 5.16948ZM9.6824 6.72498C9.8183 6.72498 10.0583 6.69319 10.1183 6.45022C10.184 6.18642 9.9588 6.17932 9.85078 6.17932L9.4648 6.17779L9.33019 6.72498H9.6824ZM9.13669 7.40294L8.95898 8.03347H9.4135C9.59228 8.03347 9.83597 7.95145 9.89568 7.74625C9.95466 7.54051 9.7843 7.40294 9.60617 7.40294H9.13669Z" fill="white"/>
<path fill-rule="evenodd" clip-rule="evenodd" d="M4.26627 9.47741C3.594 9.47741 2.90319 9.32445 2.21326 9.02194L2.19633 9.01425L2.18823 8.99831C1.87862 8.39455 1.71484 7.73423 1.71484 7.08815C1.71484 6.443 1.8719 5.81089 2.1817 5.20795L2.19026 5.19192L2.20751 5.18393C2.84573 4.90462 3.53227 4.76318 4.24879 4.76318C4.91618 4.76318 5.62903 4.92065 6.30981 5.21942L6.32724 5.2266L6.33534 5.24292C6.65084 5.85781 6.81724 6.51801 6.81724 7.15343C6.81724 7.78629 6.65747 8.41899 6.34155 9.0335L6.33327 9.04961L6.3157 9.05709C5.68718 9.33193 4.97847 9.47741 4.26627 9.47741ZM2.27712 8.93915C2.94731 9.23044 3.61581 9.37749 4.26627 9.37749C4.95598 9.37749 5.64186 9.23822 6.25249 8.97421C6.5558 8.37874 6.70954 7.76589 6.70954 7.15343C6.70954 6.53841 6.54908 5.89874 6.24554 5.30191C5.58486 5.015 4.89488 4.86285 4.24879 4.86285C3.55513 4.86285 2.89022 4.99876 2.27132 5.26694C1.97422 5.85131 1.823 6.46369 1.823 7.08815C1.823 7.7137 1.98011 8.35367 2.27712 8.93915Z" fill="white"/>
</svg>
