<svg width="117" height="108" viewBox="0 0 117 108" fill="none" xmlns="http://www.w3.org/2000/svg">
<g clip-path="url(#clip0_150_10763)">
<path opacity="0.1" fill-rule="evenodd" clip-rule="evenodd" d="M92.6401 69.2336C85.0663 82.1997 72.0657 86.6402 60.3847 90.1206C50.0087 93.2122 40.1152 93.1316 32.8103 87.06C24.6567 80.283 17.3585 70.3017 19.6844 56.2917C21.9965 42.3649 33.3118 31.3967 43.6309 21.8824C53.6296 12.6636 64.6413 4.17314 75.0674 5.22831C86.0964 6.34449 93.7761 15.2424 97.0843 27.2921C100.525 39.8237 100.597 55.6111 92.6401 69.2336Z" fill="#B1CF1F"/>
<path opacity="0.1" fill-rule="evenodd" clip-rule="evenodd" d="M50.5283 79.403C34.1041 78.2911 23.4245 70.391 14.3297 63.1215C6.2509 56.6641 1.52464 49.4885 3.94482 42.1686C6.64621 33.9982 12.9128 25.3683 27.8142 22.3373C42.627 19.3243 58.9047 23.8115 73.2692 28.0678C87.1877 32.192 100.882 37.2931 104.909 45.1812C109.169 53.5254 104.153 62.0666 93.9147 68.5093C83.2675 75.2096 67.7839 80.5712 50.5283 79.403Z" fill="#B1CF1F"/>
<path opacity="0.2" fill-rule="evenodd" clip-rule="evenodd" d="M48.9926 73.0292C34.5208 65.1834 28.0973 53.5557 22.8526 43.1608C18.1937 33.9272 16.8821 25.4357 22.1289 19.7868C27.9853 13.4816 37.2747 8.24217 52.0859 11.6871C66.809 15.1116 79.7431 25.9655 91.0335 35.8134C101.973 45.3555 112.303 55.6928 112.682 64.5412C113.083 73.9013 104.968 79.5803 92.9773 81.1783C80.5075 82.8402 64.1971 81.2722 48.9926 73.0292Z" stroke="#B1CF1F"/>
<path opacity="0.2" fill-rule="evenodd" clip-rule="evenodd" d="M28.3784 34.6112C37.4634 20.2034 51.4336 15.1809 63.9394 11.2318C75.0481 7.72386 85.3641 7.7292 92.4327 14.384C100.323 21.812 107.028 32.7919 103.324 48.3101C99.6413 63.7361 86.8344 75.9655 75.1995 86.578C63.9259 96.861 51.6617 106.347 40.8789 105.268C29.4725 104.126 22.2705 94.3482 19.9171 81.0463C17.4696 67.2125 18.8335 49.7484 28.3784 34.6112Z" stroke="#B1CF1F"/>
<path opacity="0.5" fill-rule="evenodd" clip-rule="evenodd" d="M60.5074 10.0491C73.2552 10.7738 81.7437 21.1996 88.9877 30.8297C95.4223 39.384 99.2811 49.1012 97.6106 59.3743C95.746 70.841 91.1337 83.1225 79.68 88.0681C68.2944 92.9843 55.5662 87.5708 44.3258 82.3822C33.4344 77.3548 22.6892 70.9612 19.3521 60.2209C15.822 48.8595 19.4687 36.7633 27.2167 27.3179C35.2745 17.4947 47.1142 9.28763 60.5074 10.0491Z" stroke="#B1CF1F"/>
</g>
<path d="M73.5902 37.9782C73.3335 37.8002 73.0058 37.7596 72.7135 37.8692L70.1914 38.815V34.9522C70.1914 34.6464 70.0446 34.3592 69.7966 34.1802C69.5487 34.0012 69.2298 33.9522 68.9397 34.0484L57.75 37.7577L46.5604 34.0484C46.2701 33.9523 45.9514 34.0012 45.7034 34.1802C45.4555 34.3592 45.3086 34.6464 45.3086 34.9522V38.815L42.7865 37.8692C42.4942 37.7596 42.1666 37.8003 41.9098 37.9782C41.6532 38.156 41.5 38.4485 41.5 38.7608V57.9307C41.5 58.3562 41.7824 58.7301 42.1917 58.8465L45.3086 59.7329V65.5479C45.3086 65.8465 45.4486 66.1277 45.6869 66.3077C45.854 66.434 46.056 66.5 46.2608 66.5C46.3479 66.5 46.4355 66.4881 46.5212 66.4637L57.75 63.2707L68.9788 66.4638C69.0645 66.4882 69.152 66.5001 69.2392 66.5001C69.444 66.5001 69.646 66.434 69.8131 66.3078C70.0514 66.1278 70.1914 65.8465 70.1914 65.5479V59.7329L73.3083 58.8466C73.7176 58.7302 74 58.3562 74 57.9307V38.7608C74 38.4485 73.8469 38.156 73.5902 37.9782ZM47.2129 51.6312L53.8357 53.821C55.1477 54.2584 56.1403 55.2778 56.5674 56.5356L47.2129 53.4347V51.6312ZM68.2871 49.6255L61.062 52.0144C60.1566 52.3163 59.3574 52.8113 58.7021 53.4437V39.4483L68.2871 36.2709V49.6255ZM68.2871 51.6312V53.4347L58.9326 56.5357C59.3596 55.2779 60.3517 54.2586 61.6621 53.8219L68.2871 51.6312ZM56.7979 39.4483V53.444C56.1421 52.8113 55.3423 52.3159 54.4358 52.0137L47.2129 49.6255V36.2709L56.7979 39.4483ZM47.2129 64.2872V60.2744L54.2689 62.2808L47.2129 64.2872ZM68.2871 64.2872L61.2311 62.2808L68.2871 60.2744V64.2872ZM72.0957 57.2116L57.75 61.291L43.4043 57.2116V40.1347L45.3086 40.8488V54.1221C45.3086 54.5325 45.5716 54.8968 45.9611 55.0259L57.4504 58.8345C57.5308 58.8618 57.6476 58.8828 57.75 58.8828C57.8507 58.8828 57.9691 58.8618 58.0496 58.8345L69.5389 55.0259C69.9284 54.8968 70.1914 54.5325 70.1914 54.1221C70.1914 53.4696 70.1914 41.5042 70.1914 40.8488L72.0957 40.1347V57.2116Z" fill="#B1CF1F"/>
<defs>
<clipPath id="clip0_150_10763">
<rect width="117" height="108" fill="white"/>
</clipPath>
</defs>
</svg>
