<svg width="68" height="68" viewBox="0 0 68 68" fill="none" xmlns="http://www.w3.org/2000/svg">
<g clip-path="url(#clip0_194_2373)">
<path d="M68 0H0V68H68V0Z" fill="white"/>
<path d="M6.30172 4.25H4.25V6.30172H6.30172V4.25Z" fill="black"/>
<path d="M8.35345 4.25H6.30172V6.30172H8.35345V4.25Z" fill="black"/>
<path d="M10.4052 4.25H8.35345V6.30172H10.4052V4.25Z" fill="black"/>
<path d="M12.4569 4.25H10.4052V6.30172H12.4569V4.25Z" fill="black"/>
<path d="M14.5086 4.25H12.4569V6.30172H14.5086V4.25Z" fill="black"/>
<path d="M16.5603 4.25H14.5086V6.30172H16.5603V4.25Z" fill="black"/>
<path d="M18.6121 4.25H16.5603V6.30172H18.6121V4.25Z" fill="black"/>
<path d="M22.7155 4.25H20.6638V6.30172H22.7155V4.25Z" fill="black"/>
<path d="M28.8707 4.25H26.819V6.30172H28.8707V4.25Z" fill="black"/>
<path d="M30.9224 4.25H28.8707V6.30172H30.9224V4.25Z" fill="black"/>
<path d="M37.0776 4.25H35.0259V6.30172H37.0776V4.25Z" fill="black"/>
<path d="M39.1293 4.25H37.0776V6.30172H39.1293V4.25Z" fill="black"/>
<path d="M43.2328 4.25H41.181V6.30172H43.2328V4.25Z" fill="black"/>
<path d="M51.4397 4.25H49.3879V6.30172H51.4397V4.25Z" fill="black"/>
<path d="M53.4914 4.25H51.4397V6.30172H53.4914V4.25Z" fill="black"/>
<path d="M55.5431 4.25H53.4914V6.30172H55.5431V4.25Z" fill="black"/>
<path d="M57.5948 4.25H55.5431V6.30172H57.5948V4.25Z" fill="black"/>
<path d="M59.6465 4.25H57.5948V6.30172H59.6465V4.25Z" fill="black"/>
<path d="M61.6983 4.25H59.6465V6.30172H61.6983V4.25Z" fill="black"/>
<path d="M63.75 4.25H61.6983V6.30172H63.75V4.25Z" fill="black"/>
<path d="M6.30172 6.30172H4.25V8.35345H6.30172V6.30172Z" fill="black"/>
<path d="M18.6121 6.30172H16.5603V8.35345H18.6121V6.30172Z" fill="black"/>
<path d="M24.7672 6.30172H22.7155V8.35345H24.7672V6.30172Z" fill="black"/>
<path d="M26.819 6.30172H24.7672V8.35345H26.819V6.30172Z" fill="black"/>
<path d="M28.8707 6.30172H26.819V8.35345H28.8707V6.30172Z" fill="black"/>
<path d="M32.9741 6.30172H30.9224V8.35345H32.9741V6.30172Z" fill="black"/>
<path d="M35.0259 6.30172H32.9741V8.35345H35.0259V6.30172Z" fill="black"/>
<path d="M39.1293 6.30172H37.0776V8.35345H39.1293V6.30172Z" fill="black"/>
<path d="M47.3362 6.30172H45.2845V8.35345H47.3362V6.30172Z" fill="black"/>
<path d="M51.4397 6.30172H49.3879V8.35345H51.4397V6.30172Z" fill="black"/>
<path d="M63.75 6.30172H61.6983V8.35345H63.75V6.30172Z" fill="black"/>
<path d="M6.30172 8.35345H4.25V10.4052H6.30172V8.35345Z" fill="black"/>
<path d="M10.4052 8.35345H8.35345V10.4052H10.4052V8.35345Z" fill="black"/>
<path d="M12.4569 8.35345H10.4052V10.4052H12.4569V8.35345Z" fill="black"/>
<path d="M14.5086 8.35345H12.4569V10.4052H14.5086V8.35345Z" fill="black"/>
<path d="M18.6121 8.35345H16.5603V10.4052H18.6121V8.35345Z" fill="black"/>
<path d="M22.7155 8.35345H20.6638V10.4052H22.7155V8.35345Z" fill="black"/>
<path d="M24.7672 8.35345H22.7155V10.4052H24.7672V8.35345Z" fill="black"/>
<path d="M37.0776 8.35345H35.0259V10.4052H37.0776V8.35345Z" fill="black"/>
<path d="M41.181 8.35345H39.1293V10.4052H41.181V8.35345Z" fill="black"/>
<path d="M43.2328 8.35345H41.181V10.4052H43.2328V8.35345Z" fill="black"/>
<path d="M47.3362 8.35345H45.2845V10.4052H47.3362V8.35345Z" fill="black"/>
<path d="M51.4397 8.35345H49.3879V10.4052H51.4397V8.35345Z" fill="black"/>
<path d="M55.5431 8.35345H53.4914V10.4052H55.5431V8.35345Z" fill="black"/>
<path d="M57.5948 8.35345H55.5431V10.4052H57.5948V8.35345Z" fill="black"/>
<path d="M59.6465 8.35345H57.5948V10.4052H59.6465V8.35345Z" fill="black"/>
<path d="M63.75 8.35345H61.6983V10.4052H63.75V8.35345Z" fill="black"/>
<path d="M6.30172 10.4052H4.25V12.4569H6.30172V10.4052Z" fill="black"/>
<path d="M10.4052 10.4052H8.35345V12.4569H10.4052V10.4052Z" fill="black"/>
<path d="M12.4569 10.4052H10.4052V12.4569H12.4569V10.4052Z" fill="black"/>
<path d="M14.5086 10.4052H12.4569V12.4569H14.5086V10.4052Z" fill="black"/>
<path d="M18.6121 10.4052H16.5603V12.4569H18.6121V10.4052Z" fill="black"/>
<path d="M22.7155 10.4052H20.6638V12.4569H22.7155V10.4052Z" fill="black"/>
<path d="M30.9224 10.4052H28.8707V12.4569H30.9224V10.4052Z" fill="black"/>
<path d="M35.0259 10.4052H32.9741V12.4569H35.0259V10.4052Z" fill="black"/>
<path d="M45.2845 10.4052H43.2328V12.4569H45.2845V10.4052Z" fill="black"/>
<path d="M51.4397 10.4052H49.3879V12.4569H51.4397V10.4052Z" fill="black"/>
<path d="M55.5431 10.4052H53.4914V12.4569H55.5431V10.4052Z" fill="black"/>
<path d="M57.5948 10.4052H55.5431V12.4569H57.5948V10.4052Z" fill="black"/>
<path d="M59.6465 10.4052H57.5948V12.4569H59.6465V10.4052Z" fill="black"/>
<path d="M63.75 10.4052H61.6983V12.4569H63.75V10.4052Z" fill="black"/>
<path d="M6.30172 12.4569H4.25V14.5086H6.30172V12.4569Z" fill="black"/>
<path d="M10.4052 12.4569H8.35345V14.5086H10.4052V12.4569Z" fill="black"/>
<path d="M12.4569 12.4569H10.4052V14.5086H12.4569V12.4569Z" fill="black"/>
<path d="M14.5086 12.4569H12.4569V14.5086H14.5086V12.4569Z" fill="black"/>
<path d="M18.6121 12.4569H16.5603V14.5086H18.6121V12.4569Z" fill="black"/>
<path d="M24.7672 12.4569H22.7155V14.5086H24.7672V12.4569Z" fill="black"/>
<path d="M26.819 12.4569H24.7672V14.5086H26.819V12.4569Z" fill="black"/>
<path d="M30.9224 12.4569H28.8707V14.5086H30.9224V12.4569Z" fill="black"/>
<path d="M51.4397 12.4569H49.3879V14.5086H51.4397V12.4569Z" fill="black"/>
<path d="M55.5431 12.4569H53.4914V14.5086H55.5431V12.4569Z" fill="black"/>
<path d="M57.5948 12.4569H55.5431V14.5086H57.5948V12.4569Z" fill="black"/>
<path d="M59.6465 12.4569H57.5948V14.5086H59.6465V12.4569Z" fill="black"/>
<path d="M63.75 12.4569H61.6983V14.5086H63.75V12.4569Z" fill="black"/>
<path d="M6.30172 14.5086H4.25V16.5603H6.30172V14.5086Z" fill="black"/>
<path d="M18.6121 14.5086H16.5603V16.5603H18.6121V14.5086Z" fill="black"/>
<path d="M22.7155 14.5086H20.6638V16.5603H22.7155V14.5086Z" fill="black"/>
<path d="M26.819 14.5086H24.7672V16.5603H26.819V14.5086Z" fill="black"/>
<path d="M30.9224 14.5086H28.8707V16.5603H30.9224V14.5086Z" fill="black"/>
<path d="M32.9741 14.5086H30.9224V16.5603H32.9741V14.5086Z" fill="black"/>
<path d="M37.0776 14.5086H35.0259V16.5603H37.0776V14.5086Z" fill="black"/>
<path d="M39.1293 14.5086H37.0776V16.5603H39.1293V14.5086Z" fill="black"/>
<path d="M47.3362 14.5086H45.2845V16.5603H47.3362V14.5086Z" fill="black"/>
<path d="M51.4397 14.5086H49.3879V16.5603H51.4397V14.5086Z" fill="black"/>
<path d="M63.75 14.5086H61.6983V16.5603H63.75V14.5086Z" fill="black"/>
<path d="M6.30172 16.5603H4.25V18.6121H6.30172V16.5603Z" fill="black"/>
<path d="M8.35345 16.5603H6.30172V18.6121H8.35345V16.5603Z" fill="black"/>
<path d="M10.4052 16.5603H8.35345V18.6121H10.4052V16.5603Z" fill="black"/>
<path d="M12.4569 16.5603H10.4052V18.6121H12.4569V16.5603Z" fill="black"/>
<path d="M14.5086 16.5603H12.4569V18.6121H14.5086V16.5603Z" fill="black"/>
<path d="M16.5603 16.5603H14.5086V18.6121H16.5603V16.5603Z" fill="black"/>
<path d="M18.6121 16.5603H16.5603V18.6121H18.6121V16.5603Z" fill="black"/>
<path d="M22.7155 16.5603H20.6638V18.6121H22.7155V16.5603Z" fill="black"/>
<path d="M26.819 16.5603H24.7672V18.6121H26.819V16.5603Z" fill="black"/>
<path d="M30.9224 16.5603H28.8707V18.6121H30.9224V16.5603Z" fill="black"/>
<path d="M35.0259 16.5603H32.9741V18.6121H35.0259V16.5603Z" fill="black"/>
<path d="M39.1293 16.5603H37.0776V18.6121H39.1293V16.5603Z" fill="black"/>
<path d="M43.2328 16.5603H41.181V18.6121H43.2328V16.5603Z" fill="black"/>
<path d="M47.3362 16.5603H45.2845V18.6121H47.3362V16.5603Z" fill="black"/>
<path d="M51.4397 16.5603H49.3879V18.6121H51.4397V16.5603Z" fill="black"/>
<path d="M53.4914 16.5603H51.4397V18.6121H53.4914V16.5603Z" fill="black"/>
<path d="M55.5431 16.5603H53.4914V18.6121H55.5431V16.5603Z" fill="black"/>
<path d="M57.5948 16.5603H55.5431V18.6121H57.5948V16.5603Z" fill="black"/>
<path d="M59.6465 16.5603H57.5948V18.6121H59.6465V16.5603Z" fill="black"/>
<path d="M61.6983 16.5603H59.6465V18.6121H61.6983V16.5603Z" fill="black"/>
<path d="M63.75 16.5603H61.6983V18.6121H63.75V16.5603Z" fill="black"/>
<path d="M22.7155 18.6121H20.6638V20.6638H22.7155V18.6121Z" fill="black"/>
<path d="M26.819 18.6121H24.7672V20.6638H26.819V18.6121Z" fill="black"/>
<path d="M37.0776 18.6121H35.0259V20.6638H37.0776V18.6121Z" fill="black"/>
<path d="M39.1293 18.6121H37.0776V20.6638H39.1293V18.6121Z" fill="black"/>
<path d="M43.2328 18.6121H41.181V20.6638H43.2328V18.6121Z" fill="black"/>
<path d="M6.30172 20.6638H4.25V22.7155H6.30172V20.6638Z" fill="black"/>
<path d="M8.35345 20.6638H6.30172V22.7155H8.35345V20.6638Z" fill="black"/>
<path d="M12.4569 20.6638H10.4052V22.7155H12.4569V20.6638Z" fill="black"/>
<path d="M18.6121 20.6638H16.5603V22.7155H18.6121V20.6638Z" fill="black"/>
<path d="M20.6638 20.6638H18.6121V22.7155H20.6638V20.6638Z" fill="black"/>
<path d="M26.819 20.6638H24.7672V22.7155H26.819V20.6638Z" fill="black"/>
<path d="M30.9224 20.6638H28.8707V22.7155H30.9224V20.6638Z" fill="black"/>
<path d="M32.9741 20.6638H30.9224V22.7155H32.9741V20.6638Z" fill="black"/>
<path d="M35.0259 20.6638H32.9741V22.7155H35.0259V20.6638Z" fill="black"/>
<path d="M37.0776 20.6638H35.0259V22.7155H37.0776V20.6638Z" fill="black"/>
<path d="M39.1293 20.6638H37.0776V22.7155H39.1293V20.6638Z" fill="black"/>
<path d="M43.2328 20.6638H41.181V22.7155H43.2328V20.6638Z" fill="black"/>
<path d="M45.2845 20.6638H43.2328V22.7155H45.2845V20.6638Z" fill="black"/>
<path d="M49.3879 20.6638H47.3362V22.7155H49.3879V20.6638Z" fill="black"/>
<path d="M51.4397 20.6638H49.3879V22.7155H51.4397V20.6638Z" fill="black"/>
<path d="M53.4914 20.6638H51.4397V22.7155H53.4914V20.6638Z" fill="black"/>
<path d="M57.5948 20.6638H55.5431V22.7155H57.5948V20.6638Z" fill="black"/>
<path d="M59.6465 20.6638H57.5948V22.7155H59.6465V20.6638Z" fill="black"/>
<path d="M63.75 20.6638H61.6983V22.7155H63.75V20.6638Z" fill="black"/>
<path d="M8.35345 22.7155H6.30172V24.7672H8.35345V22.7155Z" fill="black"/>
<path d="M10.4052 22.7155H8.35345V24.7672H10.4052V22.7155Z" fill="black"/>
<path d="M12.4569 22.7155H10.4052V24.7672H12.4569V22.7155Z" fill="black"/>
<path d="M14.5086 22.7155H12.4569V24.7672H14.5086V22.7155Z" fill="black"/>
<path d="M24.7672 22.7155H22.7155V24.7672H24.7672V22.7155Z" fill="black"/>
<path d="M32.9741 22.7155H30.9224V24.7672H32.9741V22.7155Z" fill="black"/>
<path d="M41.181 22.7155H39.1293V24.7672H41.181V22.7155Z" fill="black"/>
<path d="M43.2328 22.7155H41.181V24.7672H43.2328V22.7155Z" fill="black"/>
<path d="M45.2845 22.7155H43.2328V24.7672H45.2845V22.7155Z" fill="black"/>
<path d="M51.4397 22.7155H49.3879V24.7672H51.4397V22.7155Z" fill="black"/>
<path d="M53.4914 22.7155H51.4397V24.7672H53.4914V22.7155Z" fill="black"/>
<path d="M55.5431 22.7155H53.4914V24.7672H55.5431V22.7155Z" fill="black"/>
<path d="M61.6983 22.7155H59.6465V24.7672H61.6983V22.7155Z" fill="black"/>
<path d="M12.4569 24.7672H10.4052V26.819H12.4569V24.7672Z" fill="black"/>
<path d="M14.5086 24.7672H12.4569V26.819H14.5086V24.7672Z" fill="black"/>
<path d="M16.5603 24.7672H14.5086V26.819H16.5603V24.7672Z" fill="black"/>
<path d="M18.6121 24.7672H16.5603V26.819H18.6121V24.7672Z" fill="black"/>
<path d="M20.6638 24.7672H18.6121V26.819H20.6638V24.7672Z" fill="black"/>
<path d="M22.7155 24.7672H20.6638V26.819H22.7155V24.7672Z" fill="black"/>
<path d="M24.7672 24.7672H22.7155V26.819H24.7672V24.7672Z" fill="black"/>
<path d="M32.9741 24.7672H30.9224V26.819H32.9741V24.7672Z" fill="black"/>
<path d="M35.0259 24.7672H32.9741V26.819H35.0259V24.7672Z" fill="black"/>
<path d="M37.0776 24.7672H35.0259V26.819H37.0776V24.7672Z" fill="black"/>
<path d="M43.2328 24.7672H41.181V26.819H43.2328V24.7672Z" fill="black"/>
<path d="M47.3362 24.7672H45.2845V26.819H47.3362V24.7672Z" fill="black"/>
<path d="M51.4397 24.7672H49.3879V26.819H51.4397V24.7672Z" fill="black"/>
<path d="M55.5431 24.7672H53.4914V26.819H55.5431V24.7672Z" fill="black"/>
<path d="M57.5948 24.7672H55.5431V26.819H57.5948V24.7672Z" fill="black"/>
<path d="M61.6983 24.7672H59.6465V26.819H61.6983V24.7672Z" fill="black"/>
<path d="M6.30172 26.819H4.25V28.8707H6.30172V26.819Z" fill="black"/>
<path d="M8.35345 26.819H6.30172V28.8707H8.35345V26.819Z" fill="black"/>
<path d="M10.4052 26.819H8.35345V28.8707H10.4052V26.819Z" fill="black"/>
<path d="M12.4569 26.819H10.4052V28.8707H12.4569V26.819Z" fill="black"/>
<path d="M14.5086 26.819H12.4569V28.8707H14.5086V26.819Z" fill="black"/>
<path d="M20.6638 26.819H18.6121V28.8707H20.6638V26.819Z" fill="black"/>
<path d="M28.8707 26.819H26.819V28.8707H28.8707V26.819Z" fill="black"/>
<path d="M41.181 26.819H39.1293V28.8707H41.181V26.819Z" fill="black"/>
<path d="M45.2845 26.819H43.2328V28.8707H45.2845V26.819Z" fill="black"/>
<path d="M53.4914 26.819H51.4397V28.8707H53.4914V26.819Z" fill="black"/>
<path d="M57.5948 26.819H55.5431V28.8707H57.5948V26.819Z" fill="black"/>
<path d="M63.75 26.819H61.6983V28.8707H63.75V26.819Z" fill="black"/>
<path d="M8.35345 28.8707H6.30172V30.9224H8.35345V28.8707Z" fill="black"/>
<path d="M14.5086 28.8707H12.4569V30.9224H14.5086V28.8707Z" fill="black"/>
<path d="M16.5603 28.8707H14.5086V30.9224H16.5603V28.8707Z" fill="black"/>
<path d="M18.6121 28.8707H16.5603V30.9224H18.6121V28.8707Z" fill="black"/>
<path d="M22.7155 28.8707H20.6638V30.9224H22.7155V28.8707Z" fill="black"/>
<path d="M35.0259 28.8707H32.9741V30.9224H35.0259V28.8707Z" fill="black"/>
<path d="M37.0776 28.8707H35.0259V30.9224H37.0776V28.8707Z" fill="black"/>
<path d="M39.1293 28.8707H37.0776V30.9224H39.1293V28.8707Z" fill="black"/>
<path d="M43.2328 28.8707H41.181V30.9224H43.2328V28.8707Z" fill="black"/>
<path d="M45.2845 28.8707H43.2328V30.9224H45.2845V28.8707Z" fill="black"/>
<path d="M49.3879 28.8707H47.3362V30.9224H49.3879V28.8707Z" fill="black"/>
<path d="M51.4397 28.8707H49.3879V30.9224H51.4397V28.8707Z" fill="black"/>
<path d="M53.4914 28.8707H51.4397V30.9224H53.4914V28.8707Z" fill="black"/>
<path d="M57.5948 28.8707H55.5431V30.9224H57.5948V28.8707Z" fill="black"/>
<path d="M10.4052 30.9224H8.35345V32.9741H10.4052V30.9224Z" fill="black"/>
<path d="M14.5086 30.9224H12.4569V32.9741H14.5086V30.9224Z" fill="black"/>
<path d="M20.6638 30.9224H18.6121V32.9741H20.6638V30.9224Z" fill="black"/>
<path d="M22.7155 30.9224H20.6638V32.9741H22.7155V30.9224Z" fill="black"/>
<path d="M28.8707 30.9224H26.819V32.9741H28.8707V30.9224Z" fill="black"/>
<path d="M32.9741 30.9224H30.9224V32.9741H32.9741V30.9224Z" fill="black"/>
<path d="M37.0776 30.9224H35.0259V32.9741H37.0776V30.9224Z" fill="black"/>
<path d="M41.181 30.9224H39.1293V32.9741H41.181V30.9224Z" fill="black"/>
<path d="M47.3362 30.9224H45.2845V32.9741H47.3362V30.9224Z" fill="black"/>
<path d="M49.3879 30.9224H47.3362V32.9741H49.3879V30.9224Z" fill="black"/>
<path d="M51.4397 30.9224H49.3879V32.9741H51.4397V30.9224Z" fill="black"/>
<path d="M61.6983 30.9224H59.6465V32.9741H61.6983V30.9224Z" fill="black"/>
<path d="M8.35345 32.9741H6.30172V35.0259H8.35345V32.9741Z" fill="black"/>
<path d="M10.4052 32.9741H8.35345V35.0259H10.4052V32.9741Z" fill="black"/>
<path d="M16.5603 32.9741H14.5086V35.0259H16.5603V32.9741Z" fill="black"/>
<path d="M18.6121 32.9741H16.5603V35.0259H18.6121V32.9741Z" fill="black"/>
<path d="M20.6638 32.9741H18.6121V35.0259H20.6638V32.9741Z" fill="black"/>
<path d="M22.7155 32.9741H20.6638V35.0259H22.7155V32.9741Z" fill="black"/>
<path d="M26.819 32.9741H24.7672V35.0259H26.819V32.9741Z" fill="black"/>
<path d="M28.8707 32.9741H26.819V35.0259H28.8707V32.9741Z" fill="black"/>
<path d="M35.0259 32.9741H32.9741V35.0259H35.0259V32.9741Z" fill="black"/>
<path d="M49.3879 32.9741H47.3362V35.0259H49.3879V32.9741Z" fill="black"/>
<path d="M55.5431 32.9741H53.4914V35.0259H55.5431V32.9741Z" fill="black"/>
<path d="M57.5948 32.9741H55.5431V35.0259H57.5948V32.9741Z" fill="black"/>
<path d="M59.6465 32.9741H57.5948V35.0259H59.6465V32.9741Z" fill="black"/>
<path d="M63.75 32.9741H61.6983V35.0259H63.75V32.9741Z" fill="black"/>
<path d="M6.30172 35.0259H4.25V37.0776H6.30172V35.0259Z" fill="black"/>
<path d="M8.35345 35.0259H6.30172V37.0776H8.35345V35.0259Z" fill="black"/>
<path d="M10.4052 35.0259H8.35345V37.0776H10.4052V35.0259Z" fill="black"/>
<path d="M24.7672 35.0259H22.7155V37.0776H24.7672V35.0259Z" fill="black"/>
<path d="M26.819 35.0259H24.7672V37.0776H26.819V35.0259Z" fill="black"/>
<path d="M28.8707 35.0259H26.819V37.0776H28.8707V35.0259Z" fill="black"/>
<path d="M37.0776 35.0259H35.0259V37.0776H37.0776V35.0259Z" fill="black"/>
<path d="M45.2845 35.0259H43.2328V37.0776H45.2845V35.0259Z" fill="black"/>
<path d="M47.3362 35.0259H45.2845V37.0776H47.3362V35.0259Z" fill="black"/>
<path d="M49.3879 35.0259H47.3362V37.0776H49.3879V35.0259Z" fill="black"/>
<path d="M53.4914 35.0259H51.4397V37.0776H53.4914V35.0259Z" fill="black"/>
<path d="M57.5948 35.0259H55.5431V37.0776H57.5948V35.0259Z" fill="black"/>
<path d="M61.6983 35.0259H59.6465V37.0776H61.6983V35.0259Z" fill="black"/>
<path d="M6.30172 37.0776H4.25V39.1293H6.30172V37.0776Z" fill="black"/>
<path d="M12.4569 37.0776H10.4052V39.1293H12.4569V37.0776Z" fill="black"/>
<path d="M18.6121 37.0776H16.5603V39.1293H18.6121V37.0776Z" fill="black"/>
<path d="M22.7155 37.0776H20.6638V39.1293H22.7155V37.0776Z" fill="black"/>
<path d="M24.7672 37.0776H22.7155V39.1293H24.7672V37.0776Z" fill="black"/>
<path d="M30.9224 37.0776H28.8707V39.1293H30.9224V37.0776Z" fill="black"/>
<path d="M45.2845 37.0776H43.2328V39.1293H45.2845V37.0776Z" fill="black"/>
<path d="M47.3362 37.0776H45.2845V39.1293H47.3362V37.0776Z" fill="black"/>
<path d="M51.4397 37.0776H49.3879V39.1293H51.4397V37.0776Z" fill="black"/>
<path d="M59.6465 37.0776H57.5948V39.1293H59.6465V37.0776Z" fill="black"/>
<path d="M61.6983 37.0776H59.6465V39.1293H61.6983V37.0776Z" fill="black"/>
<path d="M6.30172 39.1293H4.25V41.181H6.30172V39.1293Z" fill="black"/>
<path d="M12.4569 39.1293H10.4052V41.181H12.4569V39.1293Z" fill="black"/>
<path d="M16.5603 39.1293H14.5086V41.181H16.5603V39.1293Z" fill="black"/>
<path d="M20.6638 39.1293H18.6121V41.181H20.6638V39.1293Z" fill="black"/>
<path d="M22.7155 39.1293H20.6638V41.181H22.7155V39.1293Z" fill="black"/>
<path d="M24.7672 39.1293H22.7155V41.181H24.7672V39.1293Z" fill="black"/>
<path d="M30.9224 39.1293H28.8707V41.181H30.9224V39.1293Z" fill="black"/>
<path d="M35.0259 39.1293H32.9741V41.181H35.0259V39.1293Z" fill="black"/>
<path d="M43.2328 39.1293H41.181V41.181H43.2328V39.1293Z" fill="black"/>
<path d="M45.2845 39.1293H43.2328V41.181H45.2845V39.1293Z" fill="black"/>
<path d="M47.3362 39.1293H45.2845V41.181H47.3362V39.1293Z" fill="black"/>
<path d="M49.3879 39.1293H47.3362V41.181H49.3879V39.1293Z" fill="black"/>
<path d="M55.5431 39.1293H53.4914V41.181H55.5431V39.1293Z" fill="black"/>
<path d="M6.30172 41.181H4.25V43.2328H6.30172V41.181Z" fill="black"/>
<path d="M8.35345 41.181H6.30172V43.2328H8.35345V41.181Z" fill="black"/>
<path d="M10.4052 41.181H8.35345V43.2328H10.4052V41.181Z" fill="black"/>
<path d="M16.5603 41.181H14.5086V43.2328H16.5603V41.181Z" fill="black"/>
<path d="M18.6121 41.181H16.5603V43.2328H18.6121V41.181Z" fill="black"/>
<path d="M24.7672 41.181H22.7155V43.2328H24.7672V41.181Z" fill="black"/>
<path d="M26.819 41.181H24.7672V43.2328H26.819V41.181Z" fill="black"/>
<path d="M35.0259 41.181H32.9741V43.2328H35.0259V41.181Z" fill="black"/>
<path d="M39.1293 41.181H37.0776V43.2328H39.1293V41.181Z" fill="black"/>
<path d="M41.181 41.181H39.1293V43.2328H41.181V41.181Z" fill="black"/>
<path d="M43.2328 41.181H41.181V43.2328H43.2328V41.181Z" fill="black"/>
<path d="M49.3879 41.181H47.3362V43.2328H49.3879V41.181Z" fill="black"/>
<path d="M51.4397 41.181H49.3879V43.2328H51.4397V41.181Z" fill="black"/>
<path d="M63.75 41.181H61.6983V43.2328H63.75V41.181Z" fill="black"/>
<path d="M6.30172 43.2328H4.25V45.2845H6.30172V43.2328Z" fill="black"/>
<path d="M10.4052 43.2328H8.35345V45.2845H10.4052V43.2328Z" fill="black"/>
<path d="M12.4569 43.2328H10.4052V45.2845H12.4569V43.2328Z" fill="black"/>
<path d="M14.5086 43.2328H12.4569V45.2845H14.5086V43.2328Z" fill="black"/>
<path d="M16.5603 43.2328H14.5086V45.2845H16.5603V43.2328Z" fill="black"/>
<path d="M22.7155 43.2328H20.6638V45.2845H22.7155V43.2328Z" fill="black"/>
<path d="M24.7672 43.2328H22.7155V45.2845H24.7672V43.2328Z" fill="black"/>
<path d="M28.8707 43.2328H26.819V45.2845H28.8707V43.2328Z" fill="black"/>
<path d="M32.9741 43.2328H30.9224V45.2845H32.9741V43.2328Z" fill="black"/>
<path d="M35.0259 43.2328H32.9741V45.2845H35.0259V43.2328Z" fill="black"/>
<path d="M45.2845 43.2328H43.2328V45.2845H45.2845V43.2328Z" fill="black"/>
<path d="M51.4397 43.2328H49.3879V45.2845H51.4397V43.2328Z" fill="black"/>
<path d="M57.5948 43.2328H55.5431V45.2845H57.5948V43.2328Z" fill="black"/>
<path d="M61.6983 43.2328H59.6465V45.2845H61.6983V43.2328Z" fill="black"/>
<path d="M63.75 43.2328H61.6983V45.2845H63.75V43.2328Z" fill="black"/>
<path d="M6.30172 45.2845H4.25V47.3362H6.30172V45.2845Z" fill="black"/>
<path d="M18.6121 45.2845H16.5603V47.3362H18.6121V45.2845Z" fill="black"/>
<path d="M22.7155 45.2845H20.6638V47.3362H22.7155V45.2845Z" fill="black"/>
<path d="M24.7672 45.2845H22.7155V47.3362H24.7672V45.2845Z" fill="black"/>
<path d="M37.0776 45.2845H35.0259V47.3362H37.0776V45.2845Z" fill="black"/>
<path d="M39.1293 45.2845H37.0776V47.3362H39.1293V45.2845Z" fill="black"/>
<path d="M41.181 45.2845H39.1293V47.3362H41.181V45.2845Z" fill="black"/>
<path d="M47.3362 45.2845H45.2845V47.3362H47.3362V45.2845Z" fill="black"/>
<path d="M49.3879 45.2845H47.3362V47.3362H49.3879V45.2845Z" fill="black"/>
<path d="M51.4397 45.2845H49.3879V47.3362H51.4397V45.2845Z" fill="black"/>
<path d="M53.4914 45.2845H51.4397V47.3362H53.4914V45.2845Z" fill="black"/>
<path d="M55.5431 45.2845H53.4914V47.3362H55.5431V45.2845Z" fill="black"/>
<path d="M57.5948 45.2845H55.5431V47.3362H57.5948V45.2845Z" fill="black"/>
<path d="M61.6983 45.2845H59.6465V47.3362H61.6983V45.2845Z" fill="black"/>
<path d="M63.75 45.2845H61.6983V47.3362H63.75V45.2845Z" fill="black"/>
<path d="M24.7672 47.3362H22.7155V49.3879H24.7672V47.3362Z" fill="black"/>
<path d="M28.8707 47.3362H26.819V49.3879H28.8707V47.3362Z" fill="black"/>
<path d="M32.9741 47.3362H30.9224V49.3879H32.9741V47.3362Z" fill="black"/>
<path d="M39.1293 47.3362H37.0776V49.3879H39.1293V47.3362Z" fill="black"/>
<path d="M47.3362 47.3362H45.2845V49.3879H47.3362V47.3362Z" fill="black"/>
<path d="M55.5431 47.3362H53.4914V49.3879H55.5431V47.3362Z" fill="black"/>
<path d="M57.5948 47.3362H55.5431V49.3879H57.5948V47.3362Z" fill="black"/>
<path d="M63.75 47.3362H61.6983V49.3879H63.75V47.3362Z" fill="black"/>
<path d="M6.30172 49.3879H4.25V51.4397H6.30172V49.3879Z" fill="black"/>
<path d="M8.35345 49.3879H6.30172V51.4397H8.35345V49.3879Z" fill="black"/>
<path d="M10.4052 49.3879H8.35345V51.4397H10.4052V49.3879Z" fill="black"/>
<path d="M12.4569 49.3879H10.4052V51.4397H12.4569V49.3879Z" fill="black"/>
<path d="M14.5086 49.3879H12.4569V51.4397H14.5086V49.3879Z" fill="black"/>
<path d="M16.5603 49.3879H14.5086V51.4397H16.5603V49.3879Z" fill="black"/>
<path d="M18.6121 49.3879H16.5603V51.4397H18.6121V49.3879Z" fill="black"/>
<path d="M22.7155 49.3879H20.6638V51.4397H22.7155V49.3879Z" fill="black"/>
<path d="M24.7672 49.3879H22.7155V51.4397H24.7672V49.3879Z" fill="black"/>
<path d="M32.9741 49.3879H30.9224V51.4397H32.9741V49.3879Z" fill="black"/>
<path d="M35.0259 49.3879H32.9741V51.4397H35.0259V49.3879Z" fill="black"/>
<path d="M45.2845 49.3879H43.2328V51.4397H45.2845V49.3879Z" fill="black"/>
<path d="M47.3362 49.3879H45.2845V51.4397H47.3362V49.3879Z" fill="black"/>
<path d="M51.4397 49.3879H49.3879V51.4397H51.4397V49.3879Z" fill="black"/>
<path d="M55.5431 49.3879H53.4914V51.4397H55.5431V49.3879Z" fill="black"/>
<path d="M61.6983 49.3879H59.6465V51.4397H61.6983V49.3879Z" fill="black"/>
<path d="M63.75 49.3879H61.6983V51.4397H63.75V49.3879Z" fill="black"/>
<path d="M6.30172 51.4397H4.25V53.4914H6.30172V51.4397Z" fill="black"/>
<path d="M18.6121 51.4397H16.5603V53.4914H18.6121V51.4397Z" fill="black"/>
<path d="M24.7672 51.4397H22.7155V53.4914H24.7672V51.4397Z" fill="black"/>
<path d="M26.819 51.4397H24.7672V53.4914H26.819V51.4397Z" fill="black"/>
<path d="M28.8707 51.4397H26.819V53.4914H28.8707V51.4397Z" fill="black"/>
<path d="M32.9741 51.4397H30.9224V53.4914H32.9741V51.4397Z" fill="black"/>
<path d="M35.0259 51.4397H32.9741V53.4914H35.0259V51.4397Z" fill="black"/>
<path d="M37.0776 51.4397H35.0259V53.4914H37.0776V51.4397Z" fill="black"/>
<path d="M41.181 51.4397H39.1293V53.4914H41.181V51.4397Z" fill="black"/>
<path d="M43.2328 51.4397H41.181V53.4914H43.2328V51.4397Z" fill="black"/>
<path d="M47.3362 51.4397H45.2845V53.4914H47.3362V51.4397Z" fill="black"/>
<path d="M55.5431 51.4397H53.4914V53.4914H55.5431V51.4397Z" fill="black"/>
<path d="M59.6465 51.4397H57.5948V53.4914H59.6465V51.4397Z" fill="black"/>
<path d="M61.6983 51.4397H59.6465V53.4914H61.6983V51.4397Z" fill="black"/>
<path d="M6.30172 53.4914H4.25V55.5431H6.30172V53.4914Z" fill="black"/>
<path d="M10.4052 53.4914H8.35345V55.5431H10.4052V53.4914Z" fill="black"/>
<path d="M12.4569 53.4914H10.4052V55.5431H12.4569V53.4914Z" fill="black"/>
<path d="M14.5086 53.4914H12.4569V55.5431H14.5086V53.4914Z" fill="black"/>
<path d="M18.6121 53.4914H16.5603V55.5431H18.6121V53.4914Z" fill="black"/>
<path d="M24.7672 53.4914H22.7155V55.5431H24.7672V53.4914Z" fill="black"/>
<path d="M26.819 53.4914H24.7672V55.5431H26.819V53.4914Z" fill="black"/>
<path d="M28.8707 53.4914H26.819V55.5431H28.8707V53.4914Z" fill="black"/>
<path d="M35.0259 53.4914H32.9741V55.5431H35.0259V53.4914Z" fill="black"/>
<path d="M37.0776 53.4914H35.0259V55.5431H37.0776V53.4914Z" fill="black"/>
<path d="M39.1293 53.4914H37.0776V55.5431H39.1293V53.4914Z" fill="black"/>
<path d="M47.3362 53.4914H45.2845V55.5431H47.3362V53.4914Z" fill="black"/>
<path d="M49.3879 53.4914H47.3362V55.5431H49.3879V53.4914Z" fill="black"/>
<path d="M51.4397 53.4914H49.3879V55.5431H51.4397V53.4914Z" fill="black"/>
<path d="M53.4914 53.4914H51.4397V55.5431H53.4914V53.4914Z" fill="black"/>
<path d="M55.5431 53.4914H53.4914V55.5431H55.5431V53.4914Z" fill="black"/>
<path d="M57.5948 53.4914H55.5431V55.5431H57.5948V53.4914Z" fill="black"/>
<path d="M6.30172 55.5431H4.25V57.5948H6.30172V55.5431Z" fill="black"/>
<path d="M10.4052 55.5431H8.35345V57.5948H10.4052V55.5431Z" fill="black"/>
<path d="M12.4569 55.5431H10.4052V57.5948H12.4569V55.5431Z" fill="black"/>
<path d="M14.5086 55.5431H12.4569V57.5948H14.5086V55.5431Z" fill="black"/>
<path d="M18.6121 55.5431H16.5603V57.5948H18.6121V55.5431Z" fill="black"/>
<path d="M22.7155 55.5431H20.6638V57.5948H22.7155V55.5431Z" fill="black"/>
<path d="M30.9224 55.5431H28.8707V57.5948H30.9224V55.5431Z" fill="black"/>
<path d="M39.1293 55.5431H37.0776V57.5948H39.1293V55.5431Z" fill="black"/>
<path d="M41.181 55.5431H39.1293V57.5948H41.181V55.5431Z" fill="black"/>
<path d="M47.3362 55.5431H45.2845V57.5948H47.3362V55.5431Z" fill="black"/>
<path d="M49.3879 55.5431H47.3362V57.5948H49.3879V55.5431Z" fill="black"/>
<path d="M51.4397 55.5431H49.3879V57.5948H51.4397V55.5431Z" fill="black"/>
<path d="M53.4914 55.5431H51.4397V57.5948H53.4914V55.5431Z" fill="black"/>
<path d="M57.5948 55.5431H55.5431V57.5948H57.5948V55.5431Z" fill="black"/>
<path d="M61.6983 55.5431H59.6465V57.5948H61.6983V55.5431Z" fill="black"/>
<path d="M63.75 55.5431H61.6983V57.5948H63.75V55.5431Z" fill="black"/>
<path d="M6.30172 57.5948H4.25V59.6465H6.30172V57.5948Z" fill="black"/>
<path d="M10.4052 57.5948H8.35345V59.6465H10.4052V57.5948Z" fill="black"/>
<path d="M12.4569 57.5948H10.4052V59.6465H12.4569V57.5948Z" fill="black"/>
<path d="M14.5086 57.5948H12.4569V59.6465H14.5086V57.5948Z" fill="black"/>
<path d="M18.6121 57.5948H16.5603V59.6465H18.6121V57.5948Z" fill="black"/>
<path d="M26.819 57.5948H24.7672V59.6465H26.819V57.5948Z" fill="black"/>
<path d="M30.9224 57.5948H28.8707V59.6465H30.9224V57.5948Z" fill="black"/>
<path d="M32.9741 57.5948H30.9224V59.6465H32.9741V57.5948Z" fill="black"/>
<path d="M35.0259 57.5948H32.9741V59.6465H35.0259V57.5948Z" fill="black"/>
<path d="M41.181 57.5948H39.1293V59.6465H41.181V57.5948Z" fill="black"/>
<path d="M43.2328 57.5948H41.181V59.6465H43.2328V57.5948Z" fill="black"/>
<path d="M45.2845 57.5948H43.2328V59.6465H45.2845V57.5948Z" fill="black"/>
<path d="M47.3362 57.5948H45.2845V59.6465H47.3362V57.5948Z" fill="black"/>
<path d="M49.3879 57.5948H47.3362V59.6465H49.3879V57.5948Z" fill="black"/>
<path d="M55.5431 57.5948H53.4914V59.6465H55.5431V57.5948Z" fill="black"/>
<path d="M59.6465 57.5948H57.5948V59.6465H59.6465V57.5948Z" fill="black"/>
<path d="M6.30172 59.6465H4.25V61.6983H6.30172V59.6465Z" fill="black"/>
<path d="M18.6121 59.6465H16.5603V61.6983H18.6121V59.6465Z" fill="black"/>
<path d="M22.7155 59.6465H20.6638V61.6983H22.7155V59.6465Z" fill="black"/>
<path d="M26.819 59.6465H24.7672V61.6983H26.819V59.6465Z" fill="black"/>
<path d="M32.9741 59.6465H30.9224V61.6983H32.9741V59.6465Z" fill="black"/>
<path d="M35.0259 59.6465H32.9741V61.6983H35.0259V59.6465Z" fill="black"/>
<path d="M37.0776 59.6465H35.0259V61.6983H37.0776V59.6465Z" fill="black"/>
<path d="M39.1293 59.6465H37.0776V61.6983H39.1293V59.6465Z" fill="black"/>
<path d="M41.181 59.6465H39.1293V61.6983H41.181V59.6465Z" fill="black"/>
<path d="M49.3879 59.6465H47.3362V61.6983H49.3879V59.6465Z" fill="black"/>
<path d="M51.4397 59.6465H49.3879V61.6983H51.4397V59.6465Z" fill="black"/>
<path d="M53.4914 59.6465H51.4397V61.6983H53.4914V59.6465Z" fill="black"/>
<path d="M57.5948 59.6465H55.5431V61.6983H57.5948V59.6465Z" fill="black"/>
<path d="M61.6983 59.6465H59.6465V61.6983H61.6983V59.6465Z" fill="black"/>
<path d="M63.75 59.6465H61.6983V61.6983H63.75V59.6465Z" fill="black"/>
<path d="M6.30172 61.6983H4.25V63.75H6.30172V61.6983Z" fill="black"/>
<path d="M8.35345 61.6983H6.30172V63.75H8.35345V61.6983Z" fill="black"/>
<path d="M10.4052 61.6983H8.35345V63.75H10.4052V61.6983Z" fill="black"/>
<path d="M12.4569 61.6983H10.4052V63.75H12.4569V61.6983Z" fill="black"/>
<path d="M14.5086 61.6983H12.4569V63.75H14.5086V61.6983Z" fill="black"/>
<path d="M16.5603 61.6983H14.5086V63.75H16.5603V61.6983Z" fill="black"/>
<path d="M18.6121 61.6983H16.5603V63.75H18.6121V61.6983Z" fill="black"/>
<path d="M22.7155 61.6983H20.6638V63.75H22.7155V61.6983Z" fill="black"/>
<path d="M24.7672 61.6983H22.7155V63.75H24.7672V61.6983Z" fill="black"/>
<path d="M28.8707 61.6983H26.819V63.75H28.8707V61.6983Z" fill="black"/>
<path d="M32.9741 61.6983H30.9224V63.75H32.9741V61.6983Z" fill="black"/>
<path d="M35.0259 61.6983H32.9741V63.75H35.0259V61.6983Z" fill="black"/>
<path d="M49.3879 61.6983H47.3362V63.75H49.3879V61.6983Z" fill="black"/>
<path d="M55.5431 61.6983H53.4914V63.75H55.5431V61.6983Z" fill="black"/>
<path d="M59.6465 61.6983H57.5948V63.75H59.6465V61.6983Z" fill="black"/>
</g>
<defs>
<clipPath id="clip0_194_2373">
<rect width="68" height="68" fill="white"/>
</clipPath>
</defs>
</svg>
