<svg width="117" height="108" viewBox="0 0 117 108" fill="none" xmlns="http://www.w3.org/2000/svg">
<g clip-path="url(#clip0_27_8343)">
<path opacity="0.1" fill-rule="evenodd" clip-rule="evenodd" d="M92.6401 69.2336C85.0663 82.1997 72.0657 86.6402 60.3847 90.1206C50.0087 93.2122 40.1152 93.1316 32.8103 87.06C24.6567 80.283 17.3585 70.3017 19.6844 56.2917C21.9965 42.3649 33.3118 31.3967 43.6309 21.8824C53.6296 12.6636 64.6413 4.17314 75.0674 5.22831C86.0964 6.34449 93.7761 15.2424 97.0843 27.2921C100.525 39.8237 100.597 55.6111 92.6401 69.2336Z" fill="#B1CF1F"/>
<path opacity="0.1" fill-rule="evenodd" clip-rule="evenodd" d="M50.5283 79.403C34.1041 78.2911 23.4245 70.391 14.3297 63.1215C6.2509 56.6641 1.52464 49.4885 3.94482 42.1686C6.64621 33.9982 12.9128 25.3683 27.8142 22.3373C42.627 19.3243 58.9047 23.8115 73.2692 28.0678C87.1877 32.192 100.882 37.2931 104.909 45.1812C109.169 53.5254 104.153 62.0666 93.9147 68.5093C83.2675 75.2096 67.7839 80.5712 50.5283 79.403Z" fill="#B1CF1F"/>
<path opacity="0.2" fill-rule="evenodd" clip-rule="evenodd" d="M48.9926 73.0292C34.5208 65.1834 28.0973 53.5557 22.8526 43.1608C18.1937 33.9272 16.8821 25.4357 22.1289 19.7868C27.9853 13.4816 37.2747 8.24217 52.0859 11.6871C66.809 15.1116 79.7431 25.9655 91.0335 35.8134C101.973 45.3555 112.303 55.6928 112.682 64.5412C113.083 73.9013 104.968 79.5803 92.9773 81.1783C80.5075 82.8402 64.1971 81.2722 48.9926 73.0292Z" stroke="#B1CF1F"/>
<path opacity="0.2" fill-rule="evenodd" clip-rule="evenodd" d="M28.3784 34.6112C37.4634 20.2034 51.4336 15.1809 63.9394 11.2318C75.0481 7.72386 85.3641 7.7292 92.4327 14.384C100.323 21.812 107.028 32.7919 103.324 48.3101C99.6413 63.7361 86.8344 75.9655 75.1995 86.578C63.9259 96.861 51.6617 106.347 40.8789 105.268C29.4725 104.126 22.2705 94.3482 19.9171 81.0463C17.4696 67.2125 18.8335 49.7484 28.3784 34.6112Z" stroke="#B1CF1F"/>
<path opacity="0.5" fill-rule="evenodd" clip-rule="evenodd" d="M60.5074 10.0491C73.2552 10.7738 81.7437 21.1996 88.9877 30.8297C95.4223 39.384 99.2811 49.1012 97.6106 59.3743C95.746 70.841 91.1337 83.1225 79.68 88.0681C68.2944 92.9843 55.5662 87.5708 44.3258 82.3822C33.4344 77.3548 22.6892 70.9612 19.3521 60.2209C15.822 48.8595 19.4687 36.7633 27.2167 27.3179C35.2745 17.4947 47.1142 9.28763 60.5074 10.0491Z" stroke="#B1CF1F"/>
</g>
<path fill-rule="evenodd" clip-rule="evenodd" d="M43.4875 40.4882C43.8001 40.1756 44.224 40 44.666 40H46.0467C45.8005 40.6965 45.4006 41.3365 44.8682 41.8689C44.3359 42.4012 43.6959 42.8011 42.9993 43.0474V41.6667C42.9993 41.2246 43.1749 40.8007 43.4875 40.4882ZM44.666 36.6667H47.9993H71.3327C72.6588 36.6667 73.9305 37.1935 74.8682 38.1311C75.8059 39.0688 76.3327 40.3406 76.3327 41.6667V55V58.3333C76.3327 59.6594 75.8059 60.9312 74.8682 61.8689C73.9305 62.8065 72.6588 63.3333 71.3327 63.3333H67.9993H44.666C43.3399 63.3333 42.0682 62.8065 41.1305 61.8689C40.1928 60.9312 39.666 59.6594 39.666 58.3333V45V41.6667C39.666 40.3406 40.1928 39.0688 41.1305 38.1311C42.0682 37.1935 43.3399 36.6667 44.666 36.6667ZM69.952 60H71.3327C71.7747 60 72.1986 59.8244 72.5112 59.5118C72.8238 59.1993 72.9993 58.7754 72.9993 58.3333V56.9526C72.3028 57.1989 71.6628 57.5988 71.1305 58.1311C70.5981 58.6635 70.1982 59.3035 69.952 60ZM72.9993 53.5017C71.4103 53.8261 69.9374 54.6101 68.7735 55.7741C67.6095 56.9381 66.8254 58.4109 66.501 60H44.666C44.224 60 43.8001 59.8244 43.4875 59.5118C43.1749 59.1993 42.9993 58.7754 42.9993 58.3333V46.4983C44.5884 46.1739 46.0613 45.3899 47.2252 44.2259C48.3892 43.0619 49.1733 41.5891 49.4977 40H71.3327C71.7747 40 72.1986 40.1756 72.5112 40.4882C72.8238 40.8007 72.9993 41.2246 72.9993 41.6667V53.5017ZM54.666 50C54.666 48.1591 56.1584 46.6667 57.9993 46.6667C59.8403 46.6667 61.3327 48.1591 61.3327 50C61.3327 51.8409 59.8403 53.3333 57.9993 53.3333C56.1584 53.3333 54.666 51.8409 54.666 50ZM57.9993 43.3333C54.3174 43.3333 51.3327 46.3181 51.3327 50C51.3327 53.6819 54.3174 56.6667 57.9993 56.6667C61.6812 56.6667 64.666 53.6819 64.666 50C64.666 46.3181 61.6812 43.3333 57.9993 43.3333Z" fill="#B1CF1F"/>
<defs>
<clipPath id="clip0_27_8343">
<rect width="117" height="108" fill="white"/>
</clipPath>
</defs>
</svg>
